HIERARCHY
ROOT hip
{
  OFFSET 0 0 0
  CHANNELS 6 Xposition Yposition Zposition Zrotation Yrotation Xrotation
  JOINT abdomen
  {
    OFFSET 0 20.6881 -0.73152
    CHANNELS 3 Zrotation Xrotation Yrotation
    JOINT chest
    {
      OFFSET 0 11.7043 -0.48768
      CHANNELS 3 Zrotation Xrotation Yrotation
      JOINT neck
      {
        OFFSET 0 22.1894 -2.19456
        CHANNELS 3 Zrotation Xrotation Yrotation
        JOINT head
        {
          OFFSET -0.24384 7.07133 1.2192
          CHANNELS 3 Zrotation Xrotation Yrotation
          JOINT leftEye
          {
            OFFSET 4.14528 8.04674 8.04672
            CHANNELS 3 Zrotation Xrotation Yrotation
            End Site
            {
              OFFSET 1 0 0
            }
          }
          JOINT rightEye
          {
            OFFSET -3.6576 8.04674 8.04672
            CHANNELS 3 Zrotation Xrotation Yrotation
            End Site
            {
              OFFSET 1 0 0
            }
          }
        }
      }
      JOINT rCollar
      {
        OFFSET -2.68224 19.2634 -4.8768
        CHANNELS 3 Zrotation Xrotation Yrotation
        JOINT rShldr
        {
          OFFSET -8.77824 -1.95073 1.46304
          CHANNELS 3 Zrotation Xrotation Yrotation
          JOINT rForeArm
          {
            OFFSET -28.1742 -1.7115 0.48768
            CHANNELS 3 Zrotation Xrotation Yrotation
            JOINT rHand
            {
              OFFSET -22.5879 0.773209 7.07136
              CHANNELS 3 Zrotation Xrotation Yrotation
              JOINT rThumb1
              {
                OFFSET -1.2192 -0.487915 3.41376
                CHANNELS 3 Zrotation Xrotation Yrotation
                JOINT rThumb2
                {
                  OFFSET -3.37035 -0.52449 3.41376
                  CHANNELS 3 Zrotation Xrotation Yrotation
                  End Site
                  {
                    OFFSET -1.78271 -1.18214 1.43049
                  }
                }
              }
              JOINT rIndex1
              {
                OFFSET -7.75947 0.938293 5.60832
                CHANNELS 3 Zrotation Xrotation Yrotation
                JOINT rIndex2
                {
                  OFFSET -2.54057 -0.884171 1.56538
                  CHANNELS 3 Zrotation Xrotation Yrotation
                  End Site
                  {
                    OFFSET -1.62519 -0.234802 1.16502
                  }
                }
              }
              JOINT rMid1
              {
                OFFSET -8.24714 1.18213 3.41376
                CHANNELS 3 Zrotation Xrotation Yrotation
                JOINT rMid2
                {
                  OFFSET -3.10165 -0.590103 1.0647
                  CHANNELS 3 Zrotation Xrotation Yrotation
                  End Site
                  {
                    OFFSET -2.48547 -0.328903 0.83742
                  }
                }
              }
              JOINT rRing1
              {
                OFFSET -8.82822 0.546677 1.51678
                CHANNELS 3 Zrotation Xrotation Yrotation
                JOINT rRing2
                {
                  OFFSET -2.60934 -0.819778 -0.0198488
                  CHANNELS 3 Zrotation Xrotation Yrotation
                  End Site
                  {
                    OFFSET -2.33842 -0.294052 0.168128
                  }
                }
              }
              JOINT rPinky1
              {
                OFFSET -8.27202 -0.0477905 -0.4584
                CHANNELS 3 Zrotation Xrotation Yrotation
                JOINT rPinky2
                {
                  OFFSET -1.82734 -0.647385 -0.700984
                  CHANNELS 3 Zrotation Xrotation Yrotation
                  End Site
                  {
                    OFFSET -1.69225 -0.51767 -0.607171
                  }
                }
              }
            }
          }
        }
      }
      JOINT lCollar
      {
        OFFSET 2.68224 19.2634 -4.8768
        CHANNELS 3 Zrotation Xrotation Yrotation
        JOINT lShldr
        {
          OFFSET 8.77824 -1.95073 1.46304
          CHANNELS 3 Zrotation Xrotation Yrotation
          JOINT lForeArm
          {
            OFFSET 28.1742 -1.7115 0.48768
            CHANNELS 3 Zrotation Xrotation Yrotation
            JOINT lHand
            {
              OFFSET 22.5879 0.773209 7.07136
              CHANNELS 3 Zrotation Xrotation Yrotation
              JOINT lThumb1
              {
                OFFSET 1.2192 -0.487915 3.41376
                CHANNELS 3 Zrotation Xrotation Yrotation
                JOINT lThumb2
                {
                  OFFSET 3.37035 -0.52449 3.41376
                  CHANNELS 3 Zrotation Xrotation Yrotation
                  End Site
                  {
                    OFFSET 1.78271 -1.18214 1.43049
                  }
                }
              }
              JOINT lIndex1
              {
                OFFSET 7.75947 0.938293 5.60832
                CHANNELS 3 Zrotation Xrotation Yrotation
                JOINT lIndex2
                {
                  OFFSET 2.54057 -0.884171 1.56538
                  CHANNELS 3 Zrotation Xrotation Yrotation
                  End Site
                  {
                    OFFSET 1.62519 -0.234802 1.16502
                  }
                }
              }
              JOINT lMid1
              {
                OFFSET 8.24714 1.18213 3.41376
                CHANNELS 3 Zrotation Xrotation Yrotation
                JOINT lMid2
                {
                  OFFSET 3.10165 -0.590103 1.0647
                  CHANNELS 3 Zrotation Xrotation Yrotation
                  End Site
                  {
                    OFFSET 2.48547 -0.328903 0.83742
                  }
                }
              }
              JOINT lRing1
              {
                OFFSET 8.82822 0.546677 1.51678
                CHANNELS 3 Zrotation Xrotation Yrotation
                JOINT lRing2
                {
                  OFFSET 2.60934 -0.819778 -0.0198488
                  CHANNELS 3 Zrotation Xrotation Yrotation
                  End Site
                  {
                    OFFSET 2.33842 -0.294052 0.168128
                  }
                }
              }
              JOINT lPinky1
              {
                OFFSET 8.27202 -0.0477905 -0.4584
                CHANNELS 3 Zrotation Xrotation Yrotation
                JOINT lPinky2
                {
                  OFFSET 1.82734 -0.647385 -0.700984
                  CHANNELS 3 Zrotation Xrotation Yrotation
                  End Site
                  {
                    OFFSET 1.69225 -0.51767 -0.607171
                  }
                }
              }
            }
          }
        }
      }
    }
  }
  JOINT rButtock
  {
    OFFSET -8.77824 4.35084 1.2192
    CHANNELS 3 Zrotation Xrotation Yrotation
    JOINT rThigh
    {
      OFFSET 0 -1.70687 -2.19456
      CHANNELS 3 Zrotation Xrotation Yrotation
      JOINT rShin
      {
        OFFSET 0 -36.8199 0.73152
        CHANNELS 3 Zrotation Xrotation Yrotation
        JOINT rFoot
        {
          OFFSET 0.73152 -45.1104 -5.12064
          CHANNELS 3 Zrotation Xrotation Yrotation
          End Site
          {
            OFFSET -1.1221 -3.69964 12.103
          }
        }
      }
    }
  }
  JOINT lButtock
  {
    OFFSET 8.77824 4.35084 1.2192
    CHANNELS 3 Zrotation Xrotation Yrotation
    JOINT lThigh
    {
      OFFSET 0 -1.70687 -2.19456
      CHANNELS 3 Zrotation Xrotation Yrotation
      JOINT lShin
      {
        OFFSET 0 -36.8199 0.73152
        CHANNELS 3 Zrotation Xrotation Yrotation
        JOINT lFoot
        {
          OFFSET -0.73152 -45.1104 -5.12064
          CHANNELS 3 Zrotation Xrotation Yrotation
          End Site
          {
            OFFSET 1.1221 -3.69964 12.103
          }
        }
      }
    }
  }
}
MOTION
Frames:	4
Frame Time:	0.03333
0.07940000295639038 51.305301666259766 0.14300000667572021 -10.199600011110306 76.4341002702713 -5.245700106024742 2.5093300826847553 22.251800447702408 -8.81030023097992 7.385510131716728 -12.60479986667633 -1.4161699824035168 -7.710550278425217 23.207301199436188 -17.922399938106537 19.946200400590897 -30.785898864269257 -30.577601194381714 0.0 0.0 0.0 0.0 0.0 0.0 0.0 0.0 0.0 43.10070097446442 5.7325901091098785 4.641129858791828 -27.5997993350029 -42.15499967336655 87.87469804286957 -0.39307999424636364 -17.543000131845474 -2.5464300625026226 -1.871143240350648e-09 1.312230324401753e-09 -3.959712557843886e-09 -3.184652541676769e-09 2.3456436792912427e-09 -6.865548130008392e-09 -1.871143240350648e-09 1.312230324401753e-09 -3.959712557843886e-09 7.7309102565050125 5.474880114197731 0.41731400415301323 -1.871143240350648e-09 1.312230324401753e-09 -3.959712557843886e-09 2.905540131032467 0.9651830233633518 0.102901995414868 -1.871143240350648e-09 1.312230324401753e-09 -3.959712557843886e-09 10.27859978377819 0.7318009994924068 0.025912300043273717 -1.871143240350648e-09 1.312230324401753e-09 -3.959712557843886e-09 2.221670038998127 -0.733487019315362 -0.2089200052432716 0.0 0.0 0.0 -3.3761098980903625 62.26800262928009 -80.80310225486755 26.69149875640869 -44.79419946670532 -93.0402946472168 0.5381769826635718 -20.38029983639717 2.992889955639839 1.6345325093425345e-09 -1.128825033447356e-08 1.6984813555609435e-09 2.7920066258957377e-09 -1.952486172740464e-08 2.977458279929124e-09 1.6345325093425345e-09 -1.128825033447356e-08 1.6984813555609435e-09 -7.7309102565050125 5.474880114197731 -0.41731400415301323 1.6345325093425345e-09 -1.128825033447356e-08 1.6984813555609435e-09 -2.905540131032467 0.9651830233633518 -0.102901995414868 1.6345325093425345e-09 -1.128825033447356e-08 1.6984813555609435e-09 -10.27859978377819 0.7318009994924068 -0.025912300043273717 1.6345325093425345e-09 -1.128825033447356e-08 1.6984813555609435e-09 -2.221670038998127 -0.733487019315362 0.2089200052432716 0.0 0.0 0.0 -49.80519890785217 -56.42059922218323 -37.464400827884674 -12.077199965715408 85.36559879779816 12.630499452352524 6.049110218882561 -23.98090124130249 9.863509833812714 0.0 0.0 0.0 60.8446991443634 -40.900200605392456 43.70420068502426 10.641300156712532 85.66369950771332 -12.720900624990463 3.8185999542474747 -22.20830038189888 9.574049860239029
0.16790000349283218 51.084800720214844 0.25600000470876694 -9.366699680685997 76.37989819049835 -4.344500005245209 2.2995699383318424 22.02269956469536 -8.71167004108429 7.071459665894508 -12.488500624895096 -1.4464299939572811 -7.725069746375084 23.16929966211319 -17.939300537109375 20.10089948773384 -30.62709867954254 -30.587300062179565 0.0 0.0 0.0 0.0 0.0 0.0 0.0 0.0 0.0 43.806999027729034 5.3962501510977745 4.395399950444698 -27.74210125207901 -41.60009890794754 86.84180080890656 -0.40110000874847174 -17.71350011229515 -2.572839930653572 4.668265773943858e-10 1.0180656317970715e-09 -4.1950443119276315e-10 8.070344392763218e-10 1.7496404325356707e-09 -7.16227077646181e-10 4.668265773943858e-10 1.0180656317970715e-09 -4.1950443119276315e-10 7.7309102565050125 5.474880114197731 0.41731400415301323 4.668265773943858e-10 1.0180656317970715e-09 -4.1950443119276315e-10 2.905540131032467 0.9651830233633518 0.102901995414868 4.668265773943858e-10 1.0180656317970715e-09 -4.1950443119276315e-10 10.27859978377819 0.7318009994924068 0.025912300043273717 4.668265773943858e-10 1.0180656317970715e-09 -4.1950443119276315e-10 2.221670038998127 -0.733487019315362 -0.2089200052432716 0.0 0.0 0.0 -2.4121700786054134 61.753501296043396 -81.7860996723175 26.744700372219086 -44.666301012039185 -92.7804958820343 0.5338180158287287 -20.30150055885315 2.9802899435162544 -5.896083621337311e-10 1.1510792319313623e-10 5.422862159321085e-10 -1.028297447192017e-09 2.5067947717616335e-10 9.208633855450898e-10 -5.896083621337311e-10 1.1510792319313623e-10 5.422862159321085e-10 -7.7309102565050125 5.474880114197731 -0.41731400415301323 -5.896083621337311e-10 1.1510792319313623e-10 5.422862159321085e-10 -2.905540131032467 0.9651830233633518 -0.102901995414868 -5.896083621337311e-10 1.1510792319313623e-10 5.422862159321085e-10 -10.27859978377819 0.7318009994924068 -0.025912300043273717 -5.896083621337311e-10 1.1510792319313623e-10 5.422862159321085e-10 -2.221670038998127 -0.733487019315362 0.2089200052432716 0.0 0.0 0.0 -50.53489923477173 -56.75610065460205 -38.064499497413635 -14.0290005505085 85.9582006931305 14.590000659227371 5.95181979238987 -24.200300574302673 9.597370326519012 0.0 0.0 0.0 61.11390173435211 -40.72790086269379 44.07079964876175 10.993399769067764 85.79740226268768 -13.086000233888626 3.7986500188708305 -22.386499643325806 9.493189975619316
0.23250000178813934 50.89899826049805 0.33500000834465027 -8.322999849915504 76.19610249996185 -3.22830006480217 2.003590017557144 21.872100234031677 -8.504970297217369 6.887030303478241 -12.404099553823471 -1.43284996971488 -7.736929804086685 23.125399947166443 -17.931900322437286 20.123299956321716 -30.547300279140472 -30.575699508190155 0.0 0.0 0.0 0.0 0.0 0.0 0.0 0.0 0.0 44.31870013475418 5.126289837062359 4.242659881711006 -27.881900668144226 -41.00009948015213 85.72979986667633 -0.41907998733222485 -18.09600055217743 -2.6321900077164173 1.892885848064907e-09 1.0027179087046534e-09 1.4426859706873074e-09 3.2447644571220735e-09 1.6780177247710526e-09 2.5272584025515243e-09 1.892885848064907e-09 1.0027179087046534e-09 1.4426859706873074e-09 7.7309102565050125 5.474880114197731 0.41731400415301323 1.892885848064907e-09 1.0027179087046534e-09 1.4426859706873074e-09 2.905540131032467 0.9651830233633518 0.102901995414868 1.892885848064907e-09 1.0027179087046534e-09 1.4426859706873074e-09 10.27859978377819 0.7318009994924068 0.025912300043273717 1.892885848064907e-09 1.0027179087046534e-09 1.4426859706873074e-09 2.221670038998127 -0.733487019315362 -0.2089200052432716 0.0 0.0 0.0 -1.8111100047826767 61.34920120239258 -82.45159864425659 26.7946994304657 -44.54349875450134 -92.53219842910767 0.5150529881939292 -19.965899884700775 2.9266098886728287 -1.9235812942497432e-09 7.49992068449501e-09 -3.2741809263825417e-10 -3.3163871648866916e-09 1.3043006674706703e-08 -5.934452929068357e-10 -1.9235812942497432e-09 7.49992068449501e-09 -3.2741809263825417e-10 -7.7309102565050125 5.474880114197731 -0.41731400415301323 -1.9235812942497432e-09 7.49992068449501e-09 -3.2741809263825417e-10 -2.905540131032467 0.9651830233633518 -0.102901995414868 -1.9235812942497432e-09 7.49992068449501e-09 -3.2741809263825417e-10 -10.27859978377819 0.7318009994924068 -0.025912300043273717 -1.9235812942497432e-09 7.49992068449501e-09 -3.2741809263825417e-10 -2.221670038998127 -0.733487019315362 0.2089200052432716 0.0 0.0 0.0 -51.21900200843811 -57.06969916820526 -38.55820029973984 -16.179299354553223 86.44950091838837 16.73880010843277 5.9441399574279785 -24.388698935508728 9.509420022368431 0.0 0.0 0.0 61.16630136966705 -40.50129979848862 44.2331001162529 11.256599575281143 85.89899897575378 -13.370499461889267 3.8509799167513847 -22.551999986171722 9.559989720582962
0.29270000010728836 50.73080062866211 0.39100001007318497 -7.477000281214714 75.93500018119812 -2.307300064712763 1.6214199922978878 21.79979994893074 -8.190109804272652 6.832049712538719 -12.35150009393692 -1.375450026243925 -7.746049985289574 23.075298964977264 -17.90029987692833 20.013499706983566 -30.54639905691147 -30.542499125003815 0.0 0.0 0.0 0.0 0.0 0.0 0.0 0.0 0.0 44.63749945163727 4.9229200556874275 4.182640090584755 -28.01250010728836 -40.34849971532822 84.54869985580444 -0.4484140081331134 -18.690599352121353 -2.725089993327856 2.4057555947365472e-09 1.2687451089732349e-09 1.6473222785862163e-09 4.128537511860486e-09 2.1231016944511794e-09 2.885371941374615e-09 2.4057555947365472e-09 1.2687451089732349e-09 1.6473222785862163e-09 7.7309102565050125 5.474880114197731 0.41731400415301323 2.4057555947365472e-09 1.2687451089732349e-09 1.6473222785862163e-09 2.905540131032467 0.9651830233633518 0.102901995414868 2.4057555947365472e-09 1.2687451089732349e-09 1.6473222785862163e-09 10.27859978377819 0.7318009994924068 0.025912300043273717 2.4057555947365472e-09 1.2687451089732349e-09 1.6473222785862163e-09 2.221670038998127 -0.733487019315362 -0.2089200052432716 0.0 0.0 0.0 -1.5515300072729588 61.0606974363327 -82.82370150089264 26.841900944709778 -44.42589998245239 -92.29519844055176 0.4834100045263767 -19.373399913311005 2.8325800225138664 -2.367386287005502e-09 1.0863629995583324e-08 -8.901679393602535e-10 -4.073541504112654e-09 1.8849561911338242e-08 -1.5859313862165436e-09 -2.367386287005502e-09 1.0863629995583324e-08 -8.901679393602535e-10 -7.7309102565050125 5.474880114197731 -0.41731400415301323 -2.367386287005502e-09 1.0863629995583324e-08 -8.901679393602535e-10 -2.905540131032467 0.9651830233633518 -0.102901995414868 -2.367386287005502e-09 1.0863629995583324e-08 -8.901679393602535e-10 -10.27859978377819 0.7318009994924068 -0.025912300043273717 -2.367386287005502e-09 1.0863629995583324e-08 -8.901679393602535e-10 -2.221670038998127 -0.733487019315362 0.2089200052432716 0.0 0.0 0.0 -51.85350000858307 -57.363401055336 -38.94190102815628 -18.414200395345688 86.84070110321045 18.96300047636032 6.028099805116653 -24.54609900712967 9.600479677319527 0.0 0.0 0.0 61.00389897823334 -40.22159904241562 44.193899631500244 11.418099403381348 85.96869885921478 -13.561699390411377 3.9769498631358147 -22.704499661922455 9.774960055947304
